<?xml version='1.0' encoding='utf-8'?>
<svg xmlns="http://www.w3.org/2000/svg" enable-background="new 0 0 1650 1700.996" version="1.1" viewBox="0 0 1650 1701"> <path d="m1596.7 1535.3s-15.827-129.4-17.09-138.13c-1.51-9.433-25.761-118.58-57.589-168.8-15.514-24.24-75.053-78.202-88.529-80.453 5.87-15.95-15.562-18.285-27.128-20.026-75.057-11.164-78.208-17.976-103.26-33.906-5.872-3.619-12.041-7.813-15.173-7.403-5.353 0.921-10.878 0.084-16.152 1.594-3.241 0.93-5.654-1.868-8.248-3.236-11.365-6.051-34.956-14.105-51.94-15.851-12.291-1.479-22.567-8.917-34.057-12.853-8.222-2.71-16.838-3.848-25.25-5.8-23.991-5.292-42.728-20.123-65.838-15.798-0.363 1.377-0.735 2.754-1.085 4.144-1.355-0.432-28.51-13.77-49.868-34.477-16.864-17.775-28.288-29.626-32.653-73.75-5.056-45.523 0.897-146.67 6.553-155.7 39.629-55.936 24.226-93.081 27.513-133.31 20.007 3.334 13.786-7.133 48.123-66.489 11.994-20.985 25.699-32.89 33.747-106.68 1.296-13.36 2.899-30.782-7.155-36.961-11.105-6.619-22.957-2.781-34.548 2.878-0.828-5.233-1.859-10.445-2.612-15.682 0.885 1.722 1.682 3.551 3.108 4.923 0 0-0.838-8.289-1.554-21.704 1.023 3.697 1.284 7.549 2.165 11.281 2.248-6.683-1.538-12.1 1.576-18.219 2.996-9.858 0.156-6.862-2.116-24.723 1.674 2.174 2.869 4.698 4.733 6.734-0.943-5.539-0.217-11.419-2.444-16.687-0.527-3.214 2.626-5.41 3.157-8.368 0.31-1.904-0.584-3.648-1.182-5.384 0.425-1.851 1.474-3.502 1.966-5.335-0.921-2.944-2.068-5.818-3.086-8.731 2.13 1.824 3.976 3.954 6.114 5.774-1.911-3.217-5.913-11.917-3.577-14.983 0.987-3.321-1.404-6.371-2.989-9.09 1.541-1.753 2.479-3.91 3.09-6.145-1.24-2.776-2.462-5.561-3.702-8.333 1.798 0.722 3.6 1.439 5.464 2.01-1.558-1.643-0.987-4.126-0.164-5.977 0.398-1.01 4.053-3.421-2.391-10.294-0.385-2.28 1.297-4.321 2.329-6.247 4.361 2.696 7.319 7 9.953 11.29-2.43-9.079-12.49-20.964-18.83-27.898 7.01 0.232 14.825 11.454 18.64 17.312-0.462-4.204-5.165-15.432-20.902-26.556 2.373 0.567 4.83 0.576 7.261 0.412-6.5-3.741-12.096-8.926-16.82-14.722 2.718 1.997 5.583 3.777 8.483 5.499-3.976-4.157-7.066-9.059-9.82-14.08 3.453 1.643 6.872 3.378 10.387 4.884-12.837-14.013-9.639-5.007-20.075-23.165 5.486 0.858 6.166 2.787 10.086 2.63-5.268-2.168-10.746-10.379-11.552-11.379 2.643-0.407 5.185-1.435 7.394-2.944-15.999-2.862-14.211-1.632-32.786-17.538 2.754 1.603 5.57 3.121 8.55 4.268-4.401-4.972-9.063-9.723-13.345-14.797 2.754 1.395 5.278 3.21 8.018 4.64-16.752-22.196 0.959-3.983-24.418-26.548-1.846-1.678-4.357-2.316-6.256-3.923-3.09-2.668-4.778 0.631-8.638-7.527 4.175 0.487 8.249 2.006 11.498 4.72-3.759-5.655-16.776-11.399-23.041-13.982 4e-3 -0.115 9e-3 -0.341 9e-3 -0.456 3.586-1.572 7.638-0.886 11.273 0.155-4.608-4.119-15.353-4.245-18.343-4.428-3.626-2.435-5.897-6.376-8.381-9.873-3.555 0.341-7.089 1.032-10.67 0.828-1.293-2.262-2.555-4.543-3.901-6.774 1.908-4.259 5.65-7.372 9.754-9.426-13.798 3.232-18.188 10.801-21.624 5.676-1.59-2.546 1.244-5.543-0.31-8.063-1.948-1.877-5.322-0.071-7.221-2.121-1.452-1.833 0.235-4.352-0.894-6.287-1.443 0.261-2.958 1.036-4.405 0.514-1.155-2.826 4.665-7.008 8.598-9.028-5.858 1.125-11.671 2.497-17.52 3.679 1.647-1.939 3.688-3.546 5.986-4.645 0.514-0.292 1.165-0.496 1.457-1.071-7.09 0.219-16.004 5.911-21.398 8.97 0.877-3.719 4.122-5.977 7.142-7.908-3.775-0.772-7.859 3.766-11.764 7.832 1.857-4.12-2.504-5.865-21.443-21.682 1.824 2.754 3.303 5.712 5.047 8.514-1.997-0.208-3.843 0.682-5.521 1.638-4.046-8.192-22.015-20.35-29.709-25.272 6.987 6.756 13.11 14.474 17.785 23.01-3.436-1.833-7.421-2.205-11.219-2.674-4.176-7.284-12.71-16.577-21.093-17.09 6.938 6.338 13.094 15.364 14.425 18.689-4.631-0.908-9.276-1.771-13.973-2.183-1.868-0.19-3.498-1.253-5.34-1.536-4.109-0.314-8.249-0.297-12.34-0.731-4.215-4.91-8.62-9.816-13.987-13.508 3.763 3.56 6.367 8.156 8.08 13.013-9.808 5.377-9.596 8.558-13.531 3.949-0.739-2.98-0.642-6.123-1.28-9.134-2.271 1.514-2.767 4.512-2.564 7.044 0.027 1.466 0.899 2.674 1.435 3.98-2.289 1.324-5.149-0.013-7.602-0.288-0.016-4.487-5.55-8.415-9.537-10.436 6.524 6.896 2.426 7.83 3.188 12.238-1.138 1.845-8.857 4.208-11.813 2.692-2.116-1.125-4.751-2.435-5.114-5.074-1.474-2.865-4.888-3.803-7.788-4.49 1.718 1.393 4.059 3.089-0.137 7.801-4.445 0.106-8.908-0.199-13.247-1.178-3.021-3.339-7.736-11.576-14.071-14.044 7.981 5.865 9.133 13.511 12.986 17.25-2.395 0.266-4.822 0.066-7.173-0.35-6.437-3.396-16.081-6.2-23.076-6.495 4.374 2.178 8.594 4.768 12.065 8.249-3.502 0.412-6.965 1.098-10.458 1.51-8.719-3.146-20.946-2.713-27.779-9e-3 5.964 0.159 11.981 1.151 17.542 3.33-15.013 0.382-17.009-2.283-32.427 9.373 2.191 0.203 4.875-0.397 6.331 7.722-2.444-2.351-5.822-3.188-9.054-3.755 3.356 3.507 3.316 8.948 6.557 12.561 4e-3 0.151 0.013 0.452 0.018 0.602-1.764-0.02-4.958-0.362-6.548-1.12-7.674-7.607-31.926-17.903-41.863-21.912 5.393 4.507 10.799 9.01 15.935 13.81-9.979-7.486-19.636-8.593-24.568-7.217 13.787 1.143 29.361 17.915 37.736 28.916-4.193-4.33-10.029-6.699-15.953-7.367 5.914 2.948 11.855 12.966 13.362 16.156-7.993-9.07-28.815-19.21-39.95-23.913 4.994 3.214 9.789 6.814 13.889 11.131-5.753-3.329-19.435-6.98-21.381-7.084 8.341 3.365 15.913 8.346 23.218 13.531-14.07-7.123-46.621-11.86-49.234-11.711 14.868 4.981 29.315 11.122 43.749 17.223-2.431 0.226-20.436-4.356-51.2 6.004 8.005-1.439 16.107-2.648 24.254-2.688-13.465 1.42-32.687 10.44-44.652 16.785 3.365-0.292 6.726-1.12 10.121-0.824 0.208 0.124 0.62 0.367 0.828 0.491-5.379 4.126-11.14 7.717-16.789 11.45-0.916-4.673-4.576-10.135-10.427-10.613 4.279 5.663 4.921 8.426 7.367 10.431-1.523 3.856-4.432 6.978-7 10.17-4.826-0.593-9.355 1.939-12.977 4.875 1.846-0.407 4.065-1.417 5.778-0.111 2.386 2.451-2.149 10.927-6.416 10.843 1.262 1.585 2.094 3.44 2.674 5.371-6.513-0.877-12.734 2.099-18.091 5.477 2.204-0.315 8.494-3.531 18.715 0.536-4.689-0.199-8.682 2.688-12.543 4.95 2.652-0.359 5.619-0.607 8.005 0.846 1.507 0.771 0.337 0.145-1.908 16.989-2.094-3.352-5.366-5.827-9.103-7.075 1.904 2.165 3.002 4.839 3.985 7.509-2.094-1.979-5.03-2.44-7.784-2.626 1.798 2.966 3.693 5.986 6.34 8.271 1.612 1.785 3.129-1.354 4.547 3.374-3.586 3.786-7.133 7.611-10.626 11.481 3.901-2.559 7.372-5.858 11.649-7.797-0.97 3.724-1.864 7.465-2.634 11.233-4.335 0.704-7.819 3.71-11.126 6.385 3.4 0.124 6.801-0.133 10.197-0.08-3.281 0.54-6.265 2.338-8.377 4.888 1.992-0.669 4.479-2.048 7.168 2.984-4.718 3.296-13.208 14.184-14.793 16.528 4.397-4.029 8.213-8.758 13.132-12.189 1.426 9.551-6.734 13.849-9.648 23.205 2.997-3.21 4.118-7.761 7.106-10.967-0.456 4.37-1.377 8.713-2.732 12.897 5.834 5.62 3.941 6.864-1.35 13.5 1.133-0.43 2.329-0.704 3.538-0.832-1.034 2.211 0.709 8.111 2.555 15.133-2.236 7.881-4.109 15.873-5.734 23.909 0.186 0.367 0.562 1.098 0.748 1.466 0.434-4.516 1.612-9.094 3.967-12.999 0.77 0.664 0.824 1.727 0.97 2.661 1.185 12.524-3.75 16 3.662 25.423 8.995 12.951-0.264 9.028-0.894 12.663 0.757 2.568 3.237 4.109 4.295 6.535-1.328 3.777-2.479 7.611-3.834 11.379 1.904-1.306 3.653-2.891 5.822-3.763-1.322 9.066 0.258 12.78-0.31 16.834 0 0-4.079 9.913-5.286 16.059 1.904-3.179 3.564-6.522 5.663-9.577 1.839 8.269 1.341 7.614-2.068 20.159-13.406-3.196-26.743 0.988-28.589 18.702-1.394 20.116 6.961 66.939 13.548 86.962 8.631 25.985 33.212 54.965 50.992 99.067 3.471 8.5 11.904 9.754 20.814 7.859 3.61 45.643-15.335 83.368 40.22 149.9-1.286 143.6-19.362 199.6-76.517 243.83 0.128-2.466 0.522-4.901 1.08-7.297-6.627 1.196-24.28-1.911-30.063 2.13-3.558 2.488-9.052 12.016-10.206 16.851-1.275 4.724 0.116 5.42-3.555 6.509-12.891 3.085-14.016-2.062-23.409-0.425-3.75 0.669-7.328 2.059-11.073 2.727-2.896 0.553-6.07 1.111-8.142 3.422-2.534 2.787-9.56 13.968-9.665 20.535 0.254 2.943-3.511 2.82-31.524 15.315-40.292 17.573-26.507 8.566-46.525 21.23-19.171 12.429-67.181 46.943-106.09 55.446-19.004 4.471-33.502 2.172-53.6 16.842-23.476 17.374-18.739 19.714-19.158 23.772-1.16 0.815-2.63 0.943-3.963 1.333-6.491 1.536-12.326 5.012-17.569 9.045-53.071 40.765-69.919 113.96-82.725 153.25-19.924 61.333-14.059 25.751-19.264 90.694-4.364 67.292-6.681 21.53-6.535 135.96 0.022 14.328 0.248 28.766-2.174 42.938-0.385 1.78-0.677 3.608-1.182 5.371h1552c-28.021-84.32-4.07-78.361-4.347-115.18z"/> </svg>